Coordinates
version=1
nRows=13
nColumns=22
inDegrees=yes

Units are S.I. units (second, meters, Newtons, ...)
If the header above contains a line with 'inDegrees', this indicates whether rotational values are in degrees (yes) or radians (no).

endheader
time	pelvis_tilt	pelvis_list	pelvis_rotation	pelvis_tx	pelvis_ty	pelvis_tz	hip_flexion_r	hip_adduction_r	hip_rotation_r	knee_angle_r	ankle_angle_r	subtalar_angle_r	hip_flexion_l	hip_adduction_l	hip_rotation_l	knee_angle_l	ankle_angle_l	subtalar_angle_l	lumbar_extension	lumbar_bending	lumbar_rotation
      0.01000000	     -1.60675921	     -4.56815102	      9.39853796	      0.12329633	      1.01934910	      1.34639712	      1.63262215	      3.77781566	     -7.59549868	    -12.42996273	     10.41132396	      1.52415221	      5.01269400	     -9.89429828	     -7.16938224	    -16.64542514	     10.78392315	      1.76822762	     -1.55802489	      4.12233411	     -0.99103176
      0.02000000	     -1.58026347	     -4.50856497	      9.31987748	      0.12358168	      1.01945805	      1.34559526	      1.59775927	      3.66836990	     -7.52494390	    -12.47830104	     10.41260784	      1.58888485	      4.77223604	     -9.77330103	     -7.32310699	    -16.36393517	     10.77462400	      1.79882573	     -1.55121020	      4.07539166	     -0.99144941
      0.03000000	     -1.55753558	     -4.43681076	      9.23428789	      0.12392456	      1.01955504	      1.34466351	      1.55840244	      3.53805982	     -7.45820368	    -12.52401850	     10.44314069	      1.62706866	      4.50819050	     -9.62828373	     -7.50107741	    -16.04746018	     10.75459203	      1.74479206	     -1.53002459	      4.01249553	     -1.00267839
      0.04000000	     -1.53265086	     -4.36339549	      9.14628045	      0.12427405	      1.01965142	      1.34363464	      1.51363429	      3.40067352	     -7.39116633	    -12.56459474	     10.46673429	      1.66197122	      4.22494415	     -9.47218244	     -7.68563109	    -15.70205922	     10.73206683	      1.65895543	     -1.51012397	      3.94916047	     -1.01576991
      0.05000000	     -1.50001452	     -4.29146794	      9.05789664	      0.12463478	      1.01975075	      1.34255740	      1.45434021	      3.26338912	     -7.32600960	    -12.59465702	     10.49237255	      1.69986243	      3.92415518	     -9.31364273	     -7.87040727	    -15.33972047	     10.70427935	      1.55666804	     -1.49599014	      3.88542878	     -1.03080789
      0.06000000	     -1.46201247	     -4.22205729	      8.97238505	      0.12499693	      1.01985141	      1.34145803	      1.38332781	      3.12843479	     -7.26255749	    -12.61316597	     10.51368649	      1.74169116	      3.61436856	     -9.15536598	     -8.04812289	    -14.96807389	     10.67184982	      1.44765558	     -1.48597419	      3.82214740	     -1.05128426
      0.07000000	     -1.41895490	     -4.15785645	      8.89265945	      0.12534914	      1.01995531	      1.34035723	      1.29971766	      3.00039158	     -7.20335968	    -12.61458912	     10.53157180	      1.78776123	      3.30061609	     -9.00182325	     -8.21615462	    -14.59248884	     10.63274941	      1.33590377	     -1.47995975	      3.76196539	     -1.07889353
      0.08000000	     -1.37696002	     -4.09759119	      8.81924486	      0.12567503	      1.02005993	      1.33927085	      1.21017269	      2.87748475	     -7.14835994	    -12.59865400	     10.53987536	      1.83621182	      2.99067952	     -8.85162323	     -8.37312356	    -14.21139844	     10.58830946	      1.22910188	     -1.47563386	      3.70101619	     -1.10990645
      0.09000000	     -1.33469752	     -4.04392279	      8.75174974	      0.12598509	      1.02016847	      1.33821106	      1.11170302	      2.76371466	     -7.10143486	    -12.56184276	     10.54398613	      1.88718118	      2.68294537	     -8.70927432	     -8.52311886	    -13.82603926	     10.53710896	      1.12629242	     -1.47150248	      3.64191844	     -1.14244844
      0.10000000	     -1.27994433	     -3.99768219	      8.68728584	      0.12630359	      1.02029673	      1.33718349	      0.98877657	      2.66209302	     -7.06751839	    -12.50199497	     10.55597414	      1.94698430	      2.36223929	     -8.57846313	     -8.67501378	    -13.43734779	     10.47926849	      1.01303455	     -1.47694887	      3.58840767	     -1.17486948
      0.11000000	     -1.26576258	     -3.94756384	      8.61503715	      0.12657789	      1.02038657	      1.33621112	      0.91767123	      2.55112018	     -7.01724405	    -12.45320298	     10.51549022	      1.99320193	      2.08196859	     -8.43616333	     -8.80185497	    -13.04176617	     10.41316444	      0.94748377	     -1.43923831	      3.51764778	     -1.19844798
      0.12000000	     -1.23111841	     -3.90107783	      8.54249522	      0.12685025	      1.02050808	      1.33529912	      0.81684376	      2.45128105	     -6.97603778	    -12.38648672	     10.49993355	      2.04731032	      1.77377120	     -8.30404219	     -8.94991958	    -12.62853684	     10.33444522	      0.87055128	     -1.42770541	      3.44405289	     -1.20669569
      0.13000000	     -1.20161562	     -3.86245759	      8.46128615	      0.12711526	      1.02062656	      1.33442862	      0.71996824	      2.36003893	     -6.94070293	    -12.30921390	     10.47867945	      2.10716005	      1.46675069	     -8.17908992	     -9.09909472	    -12.20726394	     10.25263141	      0.79770670	     -1.40930489	      3.37888783	     -1.20854256
